<svg width="110" height="53" viewBox="0 0 129 72" fill="none" xmlns="http://www.w3.org/2000/svg">
<g filter="url(#filter0_d_135_1843)">
<path fill-rule="evenodd" clip-rule="evenodd" d="M27.9385 0C19.6542 0 12.9385 6.71573 12.9385 15V20.847H4V25.767H5.5V39.267H4V44.187H12.9385V49C12.9385 57.2843 19.6542 64 27.9385 64H103.938C112.223 64 118.938 57.2843 118.938 49V44.5998C119.079 44.6046 119.222 44.607 119.368 44.607C120.348 44.607 121.308 44.507 122.248 44.307C123.208 44.127 123.968 43.927 124.528 43.707V38.997C123.628 39.177 122.798 39.267 122.038 39.267C121.458 39.267 121.018 39.117 120.718 38.817C120.438 38.497 120.298 38.007 120.298 37.347V32.427H124.348V27.507H120.298V23.967H118.938V15C118.938 6.71573 112.223 0 103.938 0H27.9385ZM118.938 23.967H113.938V25.317C113.938 25.997 113.748 26.537 113.368 26.937C112.988 27.317 112.418 27.507 111.658 27.507V32.427H112.978V37.857C112.978 40.297 113.508 42.037 114.568 43.077C115.573 44.027 117.03 44.5346 118.938 44.5998V23.967ZM12.9385 44.187H16.78V39.267H13.9V34.947H17.17C19.75 34.947 21.72 34.397 23.08 33.297C24.44 32.177 25.12 30.377 25.12 27.897C25.12 25.417 24.44 23.627 23.08 22.527C21.72 21.407 19.75 20.847 17.17 20.847H12.9385V44.187ZM16.66 28.767C16.66 30.047 16.08 30.687 14.92 30.687H13.9V25.767H14.92C15.5 25.767 15.93 25.927 16.21 26.247C16.51 26.547 16.66 27.027 16.66 27.687V28.767ZM40.0384 27.207C39.6784 27.127 39.2984 27.087 38.8984 27.087C37.8784 27.087 37.0084 27.317 36.2884 27.777C35.5684 28.217 34.9284 28.857 34.3684 29.697V27.507H26.1484V32.427H27.4684V39.267H26.1484V44.187H37.0684V39.267H34.3684V36.657C34.3684 35.357 34.7084 34.377 35.3884 33.717C36.0684 33.057 37.0384 32.727 38.2984 32.727C39.2384 32.727 40.1184 32.897 40.9384 33.237V27.507C40.6984 27.387 40.3984 27.287 40.0384 27.207ZM44.1888 42.387C45.7888 43.867 48.0088 44.607 50.8488 44.607C53.6888 44.607 55.9088 43.867 57.5088 42.387C59.1088 40.887 59.9088 38.707 59.9088 35.847C59.9088 33.027 59.1188 30.867 57.5388 29.367C55.9588 27.847 53.7288 27.087 50.8488 27.087C48.0088 27.087 45.7888 27.837 44.1888 29.337C42.5888 30.817 41.7887 32.987 41.7887 35.847C41.7887 38.707 42.5888 40.887 44.1888 42.387ZM52.1388 38.817C51.8588 39.117 51.4288 39.267 50.8488 39.267C50.2688 39.267 49.8288 39.117 49.5288 38.817C49.2488 38.497 49.1088 38.007 49.1088 37.347V34.347C49.1088 33.687 49.2488 33.207 49.5288 32.907C49.8288 32.587 50.2688 32.427 50.8488 32.427C51.4288 32.427 51.8588 32.587 52.1388 32.907C52.4388 33.207 52.5888 33.687 52.5888 34.347V37.347C52.5888 38.007 52.4388 38.497 52.1388 38.817ZM62.4238 39.267H60.9238V44.187H73.7038V39.267H70.8238V34.947H74.0938C76.6738 34.947 78.6438 34.397 80.0038 33.297C81.3638 32.177 82.0438 30.377 82.0438 27.897C82.0438 25.417 81.3638 23.627 80.0038 22.527C78.6438 21.407 76.6738 20.847 74.0938 20.847H60.9238V25.767H62.4238V39.267ZM73.5838 28.767C73.5838 30.047 73.0038 30.687 71.8438 30.687H70.8238V25.767H71.8438C72.4238 25.767 72.8538 25.927 73.1338 26.247C73.4338 26.547 73.5838 27.027 73.5838 27.687V28.767ZM83.0123 39.267V44.217H92.5523V39.267H91.2323V20.847H83.0123V25.767H84.3323V39.267H83.0123ZM110.991 44.187V39.267H109.671V33.717C109.671 31.457 109.031 29.787 107.751 28.707C106.471 27.627 104.341 27.087 101.361 27.087C100.181 27.087 98.9706 27.167 97.7305 27.327C96.4905 27.487 95.3405 27.697 94.2805 27.957V33.477C95.1405 33.157 96.0806 32.907 97.1005 32.727C98.1405 32.527 99.1105 32.427 100.011 32.427C101.111 32.427 101.891 32.557 102.351 32.817C102.811 33.057 103.071 33.517 103.131 34.197C96.7105 34.297 93.5005 36.237 93.5005 40.017C93.5005 41.477 93.9305 42.607 94.7906 43.407C95.6506 44.207 96.8306 44.607 98.3306 44.607C99.4706 44.607 100.431 44.357 101.211 43.857C102.011 43.357 102.631 42.787 103.071 42.147V44.187H110.991ZM100.971 37.527C101.471 37.287 102.171 37.167 103.071 37.167V37.347C103.071 38.147 102.931 38.767 102.651 39.207C102.371 39.647 101.971 39.867 101.451 39.867C101.071 39.867 100.771 39.767 100.551 39.567C100.351 39.347 100.251 39.067 100.251 38.727C100.251 38.167 100.491 37.767 100.971 37.527Z" fill="#0007B6"/>
</g>
<defs>
<filter id="filter0_d_135_1843" x="0" y="0" width="128.527" height="72" filterUnits="userSpaceOnUse" color-interpolation-filters="sRGB">
<feFlood flood-opacity="0" result="BackgroundImageFix"/>
<feColorMatrix in="SourceAlpha" type="matrix" values="0 0 0 0 0 0 0 0 0 0 0 0 0 0 0 0 0 0 127 0" result="hardAlpha"/>
<feOffset dy="4"/>
<feGaussianBlur stdDeviation="2"/>
<feComposite in2="hardAlpha" operator="out"/>
<feColorMatrix type="matrix" values="0 0 0 0 0 0 0 0 0 0 0 0 0 0 0 0 0 0 0.25 0"/>
<feBlend mode="normal" in2="BackgroundImageFix" result="effect1_dropShadow_135_1843"/>
<feBlend mode="normal" in="SourceGraphic" in2="effect1_dropShadow_135_1843" result="shape"/>
</filter>
</defs>
</svg>
